<?xml version="1.0" encoding="iso-8859-1"?>
<!-- Uploaded to: SVG Repo, www.svgrepo.com, Generator: SVG Repo Mixer Tools -->
<svg fill="#000000" height="800px" width="800px" version="1.1" id="Layer_1" xmlns="http://www.w3.org/2000/svg" xmlns:xlink="http://www.w3.org/1999/xlink" 
	 viewBox="0 0 512 512" xml:space="preserve">
<g>
	<g>
		<path d="M256,128.548c-20.214,0-36.659,16.444-36.659,36.659c0,20.215,16.445,36.66,36.659,36.66s36.659-16.445,36.659-36.66
			C292.659,144.992,276.214,128.548,256,128.548z"/>
	</g>
</g>
<g>
	<g>
		<path d="M452.67,387.521v-25.757c15.199-6.505,25.876-21.605,25.876-39.156c0-23.474-19.098-42.572-42.572-42.572
			c-4.87,0-9.547,0.834-13.909,2.345l-62.87-35.637c17.763-22.433,28.384-50.767,28.384-81.538
			c0-72.553-59.026-131.578-131.578-131.578s-131.58,59.027-131.58,131.58c0,30.771,10.621,59.105,28.384,81.538l-62.871,35.636
			c-4.362-1.513-9.038-2.345-13.909-2.345c-23.474,0-42.572,19.098-42.572,42.572c0,17.55,10.677,32.651,25.876,39.156v25.757
			C25.417,395.153,0,425.492,0,461.676v16.696h152.051v-16.696c0-36.184-25.417-66.523-59.33-74.155v-25.757
			c15.197-6.505,25.875-21.605,25.875-39.156c0-5.756-1.154-11.245-3.233-16.256L177.8,270.96
			c17.65,13.085,38.67,21.867,61.503,24.772v91.789c-33.912,7.632-59.33,37.971-59.33,74.155v16.696h152.051v-16.696
			c0-36.184-25.417-66.523-59.33-74.155v-91.789c22.833-2.904,43.854-11.687,61.503-24.772l62.437,35.391
			c-2.079,5.012-3.233,10.502-3.233,16.256c0,17.55,10.677,32.651,25.875,39.156v25.757c-33.912,7.632-59.33,37.971-59.33,74.155
			v16.696H512v-16.696C512,425.492,486.583,395.153,452.67,387.521z M256,235.257c-38.626,0-70.05-31.425-70.05-70.052
			c0-38.627,31.425-70.049,70.05-70.049c38.626,0,70.051,31.423,70.051,70.051C326.051,203.834,294.626,235.257,256,235.257z"/>
	</g>
</g>
</svg>