<?xml version="1.0" encoding="iso-8859-1"?>
<!-- Uploaded to: SVG Repo, www.svgrepo.com, Generator: SVG Repo Mixer Tools -->
<svg fill="#000000" height="800px" width="800px" version="1.1" id="Layer_1" xmlns="http://www.w3.org/2000/svg" xmlns:xlink="http://www.w3.org/1999/xlink" 
	 viewBox="0 0 512 512" xml:space="preserve">
<g>
	<g>
		<path d="M255.985,0c-37.9,0-68.735,30.835-68.735,68.736c0,37.9,30.835,68.735,68.735,68.735
			c37.901,0,68.736-30.835,68.736-68.735C324.721,30.835,293.886,0,255.985,0z"/>
	</g>
</g>
<g>
	<g>
		<path d="M129.296,357.546c-3.07-7.761-7.839-14.348-13.702-19.531l13.302-63.467L35.43,250.317l7.077,92.681
			c-11.984,14.019-16.04,34.046-8.796,52.359c3.518,8.892,9.529,16.643,17.379,22.414l19.777-26.904
			c-2.828-2.079-4.882-4.702-6.105-7.792c-3.652-9.233,0.888-19.714,10.12-23.366c9.233-3.649,19.714,0.889,23.365,10.121
			c1.223,3.092,1.519,6.41,0.878,9.859l32.829,6.098C133.733,376.205,132.814,366.44,129.296,357.546z"/>
	</g>
</g>
<g>
	<g>
		<path d="M477.631,356.022c-2.086-4.815-4.844-9.204-8.163-13.077l7.073-92.63l-93.467,24.231l13.295,63.432
			c-5.976,5.286-10.675,11.932-13.693,19.564c-3.519,8.894-4.439,18.661-2.658,28.244l32.828-6.099
			c-0.64-3.451-0.346-6.766,0.878-9.859c1.77-4.472,5.173-7.987,9.586-9.899c4.413-1.911,9.305-1.988,13.779-0.22
			c4.472,1.77,7.988,5.173,9.899,9.587c1.912,4.413,1.99,9.305,0.22,13.778c-1.224,3.092-3.277,5.714-6.104,7.792l19.774,26.907
			c7.854-5.772,13.863-13.522,17.38-22.417C483.311,382.589,483.087,368.62,477.631,356.022z"/>
	</g>
</g>
<g>
	<g>
		<path d="M357.116,90.613h-1.37c-10.044,45.834-50.955,80.249-99.76,80.249c-48.805,0-89.716-34.414-99.76-80.249h-1.37
			L45.277,218.374l104.239,27.025l15.268-14.45l13.794,89.071h154.815l13.794-89.071l15.268,14.45l104.24-27.024L357.116,90.613z"/>
	</g>
</g>
<g>
	<g>
		<polygon points="353.95,478.609 357.725,352.298 262.203,352.298 265.978,478.609 245.992,478.609 249.769,352.298 
			154.245,352.298 158.022,478.609 146.381,478.609 146.381,512 159.02,512 244.995,512 266.976,512 352.951,512 365.59,512 
			365.59,478.609 		"/>
	</g>
</g>
</svg>